<?xml version="1.0" encoding="UTF-8" standalone="no"?>
<!-- Created with Inkscape (http://www.inkscape.org/) -->

<svg
   width="165.11406mm"
   height="182.74442mm"
   viewBox="0 0 165.11406 182.74442"
   version="1.1"
   id="svg1"
   xml:space="preserve"
   xmlns="http://www.w3.org/2000/svg"
   xmlns:svg="http://www.w3.org/2000/svg"><defs
     id="defs1" /><g
     id="layer1"
     transform="translate(-431.8246,-13.459644)"><g
       id="g1"><path
         style="fill:#5bfce9;fill-opacity:1"
         d="m 506.07226,176.99694 c 0.0724,-0.47294 0.26938,-2.22911 0.43769,-3.9026 0.16831,-1.67349 0.59605,-4.05474 0.95055,-5.29167 0.8524,-2.97424 2.425,-6.11504 4.36984,-8.72749 1.74997,-2.35067 5.37814,-5.71468 6.45491,-5.98493 0.37967,-0.0953 2.19792,-0.0684 4.04054,0.0597 4.77304,0.33188 9.38264,0.22049 11.52505,-0.2785 2.27421,-0.52968 4.68473,-1.79423 5.76452,-3.02404 0.4531,-0.51605 1.13352,-1.59856 1.51203,-2.40556 0.58026,-1.23712 0.68503,-1.82007 0.66791,-3.71624 -0.0112,-1.23693 -0.22593,-3.41494 -0.47724,-4.84003 -0.25132,-1.42508 -0.37636,-2.85383 -0.27788,-3.175 0.0985,-0.32116 0.87717,-1.31609 1.73044,-2.21096 0.85326,-0.89486 1.67207,-1.94445 1.81957,-2.33242 0.28479,-0.74905 0.10562,-1.28729 -0.82966,-2.49238 -0.26935,-0.34704 -0.48972,-0.95334 -0.48972,-1.34732 0,-0.53913 0.40064,-1.08333 1.6195,-2.19984 1.8932,-1.73422 1.89408,-1.74626 0.37439,-5.1527 -1.11024,-2.48863 -1.09309,-3.4372 0.0769,-4.25058 0.38906,-0.27049 2.05621,-1.18809 3.70478,-2.03913 1.64857,-0.85103 3.50876,-1.99744 4.13374,-2.54757 1.44877,-1.27526 2.10029,-2.61545 1.92107,-3.95164 -0.089,-0.6636 -1.31815,-2.99519 -3.57222,-6.77618 -4.27326,-7.168033 -5.77118,-9.841203 -7.30726,-13.040503 -2.28112,-4.75103 -2.58884,-7.76499 -1.32369,-12.96459 0.65124,-2.6765 0.73933,-3.53628 0.73187,-7.14375 -0.007,-3.46705 -0.11809,-4.58821 -0.71753,-7.25238 -1.61579,-7.18119 -3.24386,-11.85787 -6.31258,-18.13304 -2.91891,-5.96884 -3.98519,-7.06859 -8.07945,-8.33305 -0.37596,-0.11611 -0.59531,-0.0731 -0.59531,0.1168 0,0.16535 0.69024,1.2747 1.53386,2.46522 1.92102,2.71093 3.89528,5.99752 5.35312,8.91145 2.20811,4.41359 4.26092,10.65377 5.26587,16.0073 0.74809,3.98522 0.71415,7.57186 -0.11808,12.48053 -0.93737,5.52878 -1.05692,7.20172 -0.65128,9.11319 0.20154,0.94972 1.24857,3.46383 2.50929,6.0253 2.32954,4.73301 3.52352,6.93006 7.57436,13.937523 1.53507,2.65549 2.60994,4.80755 2.60994,5.22552 0,0.39086 -0.21071,0.92135 -0.46824,1.17889 -0.25754,0.25753 -1.98465,1.28494 -3.83804,2.28314 -5.43515,2.92725 -6.62159,4.3132 -6.03476,7.04952 0.15677,0.73099 0.52358,1.79665 0.81512,2.36813 0.29155,0.57148 0.53009,1.40804 0.53009,1.85903 0,0.79199 -0.11738,0.87512 -3.43959,2.43593 -1.89177,0.88878 -3.43958,1.76541 -3.43958,1.94807 0,0.57198 2.133,2.18833 3.47681,2.63467 1.08762,0.36125 1.28569,0.53041 1.28569,1.09802 0,0.44575 -0.48462,1.19442 -1.44372,2.23037 -0.91026,0.98319 -1.50496,1.88582 -1.60945,2.44282 -0.0983,0.52415 0.1122,2.39419 0.51768,4.59822 0.37587,2.04313 0.68079,4.17446 0.6776,4.73629 -0.0127,2.23026 -1.71458,4.36646 -4.21271,5.28776 -1.59941,0.58985 -8.74407,0.79372 -13.23304,0.37761 -5.37667,-0.49841 -12.13539,-1.53935 -19.05365,-2.93455 l -6.475,-1.30581 -0.59309,0.72429 c -0.66978,0.81793 -0.7687,1.46489 -0.28139,1.84035 0.35699,0.27505 6.59651,1.6793 10.2526,2.30743 1.23693,0.2125 3.5985,0.52796 5.24793,0.70101 2.15336,0.22591 3.04039,0.42257 3.14586,0.69742 0.0911,0.23751 -0.55124,1.10219 -1.69263,2.27835 -1.01173,1.04256 -2.27384,2.44564 -2.80468,3.11796 -1.38834,1.75836 -3.75794,6.39457 -4.41742,8.64284 -0.82159,2.8009 -1.33036,5.98157 -1.33078,8.31949 l -3.6e-4,2.04514 1.04779,0.53454 c 0.57629,0.294 1.10668,0.53455 1.17864,0.53455 0.072,0 0.1901,-0.38696 0.26252,-0.8599 z m -28.57604,-16.50488 c 0.28537,-2.78532 0.89776,-5.32607 1.84193,-7.64194 1.57865,-3.8721 4.23771,-7.11519 7.63674,-9.31401 0.99155,-0.64143 3.85416,-2.2698 6.36135,-3.61859 6.72665,-3.61874 10.35892,-6.04064 14.35342,-9.57052 2.81564,-2.48812 5.00047,-4.82167 7.11722,-7.60169 2.52446,-3.31546 4.60655,-6.79715 6.21013,-10.3846 3.46881,-7.76025 5.54075,-15.993163 6.52252,-25.917413 0.35125,-3.55065 0.4147,-6.086 0.30128,-12.03855 -0.15187,-7.97041 -0.56305,-12.08648 -1.90706,-19.09047 -1.24815,-6.50445 -2.74465,-11.03176 -5.5402,-16.76057 -1.75882,-3.60427 -3.66041,-6.74687 -4.08253,-6.74687 -0.49094,0 -2.67354,1.04471 -2.67354,1.27971 0,0.1321 0.66101,1.34185 1.4689,2.68835 2.9986,4.99766 5.26601,10.25513 6.84677,15.87569 2.23158,7.93467 3.06063,14.29743 3.06109,23.4932 4.5e-4,9.11025 -0.94524,16.89387 -3.05067,25.108683 -1.33169,5.19589 -2.58764,8.71616 -4.47208,12.53464 -1.92747,3.90567 -4.0613,7.2638 -6.40025,10.07243 -2.46921,2.96506 -6.85281,7.04768 -9.53033,8.87597 -1.28878,0.88002 -5.37932,3.35711 -9.0901,5.50466 -3.71078,2.14754 -7.48876,4.43018 -8.39551,5.07252 -2.24072,1.58734 -4.13998,3.55229 -5.6389,5.83397 -1.37128,2.08738 -2.44652,4.49102 -3.98739,8.9136 -0.74559,2.13999 -0.93823,3.00781 -0.74699,3.36514 0.32697,0.61096 2.37291,1.82102 3.07894,1.82102 0.46573,0 0.55895,-0.22864 0.71526,-1.75436 z m 23.97042,-73.391263 c 1.57655,-0.27316 4.27647,-1.21599 6.11755,-2.13627 1.98621,-0.99283 5.56284,-3.71279 6.68843,-5.08642 1.21761,-1.48593 2.27527,-3.64554 2.27527,-4.64578 0,-0.55447 -0.19049,-0.93926 -0.59531,-1.20254 -1.02001,-0.66337 -5.10393,-1.71101 -8.47707,-2.1746 -2.74772,-0.37764 -3.65473,-0.39749 -6.06668,-0.13278 -5.66145,0.62134 -10.74019,2.8818 -16.28021,7.24605 -1.1462,0.90295 -1.65364,1.48406 -1.65364,1.89374 0,0.84361 1.54391,2.52151 3.27959,3.56423 2.10392,1.26393 4.62098,2.11658 7.55309,2.55858 2.70653,0.408 5.23636,0.44892 7.15898,0.11579 z m -5.90244,-2.65816 c -1.04652,-0.15447 -2.49808,-0.4687 -3.22568,-0.69828 -1.78227,-0.56236 -4.28729,-1.83441 -4.43718,-2.2532 -0.21186,-0.59194 0.30472,-1.22455 1.86383,-2.28244 3.44532,-2.33775 7.74695,-4.06583 11.17247,-4.4883 3.00487,-0.37059 7.93014,0.0976 11.04619,1.05004 0.74623,0.22809 0.8599,0.37974 0.8599,1.1473 0,0.75515 -0.2611,1.12187 -1.78594,2.50836 -2.04735,1.8616 -4.35404,3.24126 -6.89867,4.1262 -1.64637,0.57255 -4.2027,1.06178 -5.94909,1.13853 -0.40868,0.018 -1.59931,-0.0937 -2.64583,-0.24821 z"
         id="path448640" /><path
         id="path448644"
         style="opacity:0.8;fill:#21436d;fill-opacity:1;stroke-width:0.200298"
         d="m 514.38161,13.459644 c -9.13721,0 -74.56196,37.773036 -79.13057,45.6861 -4.5686,7.913063 -4.5686,83.459136 0,91.372196 4.56861,7.91307 69.99336,45.68611 79.13057,45.68611 9.13722,0 74.56197,-37.77304 79.13057,-45.68611 4.56861,-7.91306 4.56861,-83.459133 0,-91.372196 -4.5686,-7.913064 -69.99335,-45.6861 -79.13057,-45.6861 z m 0,15.937528 c 7.54347,0 61.55659,31.184248 65.32832,37.717077 3.77173,6.53283 3.77173,68.901841 0,75.434671 -3.77173,6.53283 -57.78485,37.71708 -65.32832,37.71708 -7.54346,0 -61.55658,-31.18425 -65.32831,-37.71708 -3.77173,-6.53283 -3.77173,-68.90184 0,-75.434671 3.77173,-6.532829 57.78485,-37.717077 65.32831,-37.717077 z" /></g></g></svg>
