<svg xmlns="http://www.w3.org/2000/svg" shape-rendering="geometricPrecision" text-rendering="geometricPrecision" image-rendering="optimizeQuality" fill-rule="evenodd" clip-rule="evenodd" viewBox="0 0 512 336.621"><path fill-rule="nonzero" d="M23.091 0h465.818C501.58 0 512 10.42 512 23.091V313.53c0 12.671-10.42 23.091-23.091 23.091H23.091C10.42 336.621 0 326.201 0 313.53V23.091C0 10.42 10.42 0 23.091 0zm220.073 180.162c-13.748 0-13.748-25.099 0-25.099h206.914c13.751 0 13.739 25.099 0 25.099H243.164zm153.163 51.287c-13.748 0-13.748-25.099 0-25.099h53.755c13.741 0 13.738 25.099 0 25.099h-53.755zm-153.163 0c-13.748 0-13.748-25.099 0-25.099h113.27c13.742 0 13.738 25.099 0 25.099h-113.27zm.003 51.395c-13.751 0-13.748-25.098 0-25.098h207.138c13.738 0 13.735 25.098 0 25.098H243.167zm-189.583-.599a2.191 2.191 0 01-2.191-2.194c0-1.54.726-5.302.934-6.556 1.108-6.683 2.601-13.362 4.504-17.745 5.913-13.586 32.933-14.998 48.844-21.176v-11.633c-10.6-.506-23.795-1.332-31.161-10.104 8.077-3.042 11.799-12.593 12.314-26.868.382-10.609-1.81-13.934 1.806-24.409 7.167-20.738 33.67-27.828 48.432-15.695 11.575-1.229 23.239 4.74 25.757 22.591 1.878 13.329-2.098 21.691 2.098 33.967 1.804 5.277 4.948 9.325 9.865 11.69-7.527 7.204-23.345 8.123-33.213 8.648v11.813c17.907 6.357 43.894 5.392 50.738 20.903 1.992 4.516 3.563 11.413 4.718 18.406.183 1.133.878 4.768.878 6.168a2.194 2.194 0 01-2.194 2.194H53.584zm3.315-232.212h308.779c4.435 0 8.064 3.638 8.064 8.064v42.811c0 4.426-3.638 8.064-8.064 8.064H56.899c-4.426 0-8.064-3.626-8.064-8.064V58.097c0-4.438 3.629-8.064 8.064-8.064zm351.76 0h46.445c4.435 0 8.064 3.638 8.064 8.064v42.811c0 4.426-3.638 8.064-8.064 8.064h-46.445c-4.426 0-8.068-3.626-8.068-8.064V58.097c0-4.438 3.632-8.064 8.068-8.064zm80.25-33.607H23.091a6.648 6.648 0 00-6.664 6.665V313.53a6.648 6.648 0 006.664 6.665h465.818a6.648 6.648 0 006.664-6.665V23.091a6.648 6.648 0 00-6.664-6.665z"/></svg>