<?xml version="1.0" encoding="UTF-8" standalone="no"?>
<svg
   shape-rendering="geometricPrecision"
   text-rendering="geometricPrecision"
   image-rendering="optimizeQuality"
   fill-rule="evenodd"
   clip-rule="evenodd"
   viewBox="0 0 512 512.00001"
   version="1.1"
   id="svg1"
   sodipodi:docname="id-proof-line-icon.svg"
   width="512"
   height="512"
   inkscape:export-filename="capture_dui_f.png"
   inkscape:export-xdpi="96"
   inkscape:export-ydpi="96"
   inkscape:version="1.4.2 (f4327f4, 2025-05-13)"
   xmlns:inkscape="http://www.inkscape.org/namespaces/inkscape"
   xmlns:sodipodi="http://sodipodi.sourceforge.net/DTD/sodipodi-0.dtd"
   xmlns="http://www.w3.org/2000/svg"
   xmlns:svg="http://www.w3.org/2000/svg">
  <defs
     id="defs1" />
  <sodipodi:namedview
     id="namedview1"
     pagecolor="#ffffff"
     bordercolor="#000000"
     borderopacity="0.25"
     inkscape:showpageshadow="2"
     inkscape:pageopacity="0.0"
     inkscape:pagecheckerboard="0"
     inkscape:deskcolor="#d1d1d1"
     inkscape:zoom="0.51990057"
     inkscape:cx="65.39712"
     inkscape:cy="279.8612"
     inkscape:window-width="1366"
     inkscape:window-height="697"
     inkscape:window-x="-8"
     inkscape:window-y="-8"
     inkscape:window-maximized="1"
     inkscape:current-layer="svg1" />
  <path
     fill-rule="nonzero"
     d="M 530.03906,512 H 893.96093 C 903.85938,512 912,520.14061 912,530.03906 v 226.90626 c 0,9.89843 -8.14062,18.03904 -18.03907,18.03904 H 530.03906 C 520.14062,774.98436 512,766.84374 512,756.94532 V 530.03905 C 512,520.14061 520.14062,512 530.03906,512 Z m 172.54688,140.75 c -10.74219,0 -10.74219,-19.60939 0,-19.60939 h 161.65625 c 10.74218,0 10.72656,19.60938 0,19.60938 z m 119.65625,40.0703 c -10.73438,0 -10.73438,-19.60937 0,-19.60937 h 42 c 10.73437,0 10.73437,19.60937 0,19.60937 z m -119.65625,0 c -10.74219,0 -10.74219,-19.60937 0,-19.60937 h 88.49218 c 10.73438,0 10.73438,19.60937 0,19.60937 z m 0.008,40.14844 c -10.75,0 -10.74219,-19.60156 0,-19.60156 h 161.82031 c 10.73437,0 10.73437,19.60156 0,19.60156 z M 556.45313,551.08594 H 797.6875 c 3.46094,0 6.29687,2.84375 6.29687,6.30467 v 33.44533 c 0,3.45312 -2.84375,6.29687 -6.29687,6.29687 H 556.45313 c -3.46094,0 -6.30469,-2.82813 -6.30469,-6.29687 v -33.44533 c 0,-3.46874 2.83593,-6.30467 6.30469,-6.30467 z m 274.8125,0 h 36.28124 c 3.46876,0 6.30469,2.84375 6.30469,6.30467 v 33.44533 c 0,3.45312 -2.84375,6.29687 -6.30469,6.29687 h -36.28124 c -3.46095,0 -6.3047,-2.82813 -6.3047,-6.29687 v -33.44533 c 0,-3.46874 2.83594,-6.30467 6.3047,-6.30467 z M 553.1875,732.96874 c -1.88282,0 -1.90625,-1.91406 -1.57031,-3.25 2.82813,-22.41406 11.49219,-21.625 23.92188,-24.82813 5.97656,-1.53906 19.62499,-7.53124 18.17968,-15.25781 -3.00782,-2.78906 -6,-6.64062 -6.52343,-12.39844 l -0.35938,0.008 c -0.83594,-0.0156 -1.64062,-0.20312 -2.39062,-0.63281 -1.66407,-0.94531 -2.57032,-2.75 -3.01563,-4.82031 -0.42969,-2.03906 -0.53907,-6.01562 0,-8.05469 0.57812,-1.61718 1.29687,-2.49219 2.21093,-2.875 l 0.0235,-0.008 c -0.41406,-7.78125 0.89844,-16.06249 -7.08594,-18.48437 15.77344,-19.49219 33.95313,-30.09375 47.60938,-12.75 15.21093,0.79687 21.99219,19.17968 12.54687,31.24219 h -0.39844 c 1.26563,0.53124 1.96875,2 2.3125,3.25781 0.26563,1.95312 0.45313,5.0625 -0.10937,7.67188 -0.42969,2.07031 -1.34375,3.87499 -3.00781,4.82031 -0.75,0.42969 -1.55469,0.61718 -2.39063,0.63281 l -0.36718,-0.008 c -0.51563,5.75781 -3.51563,9.60938 -6.52344,12.39844 -1.44532,7.73437 12.21874,13.71875 18.19531,15.25781 12.4375,3.19531 21.10937,2.41406 23.9375,24.82813 0.32812,1.33593 0.30469,3.25 -1.57813,3.25 z M 893.96093,524.83594 H 530.03906 c -2.88281,0 -5.20312,2.32031 -5.20312,5.20311 v 226.90627 c 0,2.88279 2.32031,5.20312 5.20312,5.20312 h 363.92187 c 2.88282,0 5.20313,-2.32032 5.20313,-5.20312 V 530.03905 c 0,-2.88281 -2.32031,-5.20311 -5.20313,-5.20311 z"
     id="path1"
     style="fill:#ffffff;stroke-width:0.78125"
     sodipodi:nodetypes="ssssssssssssssssssssssssssssssssssssssssssssssscccccccccccccccccccccccccsssssssss" />
  <g
     id="g5"
     style="fill:#ffffff">
    <g
       id="g2"
       style="fill:#ffffff">
      <path
         d="M 20.29297,0 C 9.15723,0 0,9.157229 0,20.292969 V 80.958984 H 14.44141 V 20.292969 c 0,-3.24316 2.6084,-5.851563 5.85156,-5.851563 H 80.95898 V 0 Z"
         style="stroke-width:0.878906;fill:#ffffff"
         id="path1-5" />
      <path
         d="M 491.70703,0 C 502.84277,0 512,9.157229 512,20.292969 V 80.958984 H 497.55859 V 20.292969 c 0,-3.24316 -2.6084,-5.851563 -5.85156,-5.851563 H 431.04102 V 0 Z"
         style="stroke-width:0.878906;fill:#ffffff"
         id="path2" />
    </g>
    <g
       id="g4"
       transform="matrix(1,0,0,-1,0,512)"
       style="fill:#ffffff">
      <path
         d="M 20.29297,0 C 9.15723,0 0,9.157229 0,20.292969 V 80.958984 H 14.44141 V 20.292969 c 0,-3.24316 2.6084,-5.851563 5.85156,-5.851563 H 80.95898 V 0 Z"
         style="stroke-width:0.878906;fill:#ffffff"
         id="path3" />
      <path
         d="M 491.70703,0 C 502.84277,0 512,9.157229 512,20.292969 V 80.958984 H 497.55859 V 20.292969 c 0,-3.24316 -2.6084,-5.851563 -5.85156,-5.851563 H 431.04102 V 0 Z"
         style="stroke-width:0.878906;fill:#ffffff"
         id="path4" />
    </g>
  </g>
  <path
     fill-rule="nonzero"
     d="m 74.03984,124.50742 h 363.92032 c 9.89922,0 18.03984,8.14062 18.03984,18.03984 v 226.90547 c 0,9.89922 -8.14062,18.03985 -18.03984,18.03985 H 74.03984 C 64.14063,387.49258 56,379.35195 56,369.45273 V 142.54726 c 0,-9.89922 8.14063,-18.03984 18.03984,-18.03984 z m 171.93203,140.75156 c -10.74062,0 -10.74062,-19.60859 0,-19.60859 h 161.65157 c 10.74297,0 10.73359,19.60859 0,19.60859 z m 119.6586,40.06797 c -10.74063,0 -10.74063,-19.60859 0,-19.60859 h 41.99609 c 10.73516,0 10.73281,19.60859 0,19.60859 z m -119.6586,0 c -10.74062,0 -10.74062,-19.60859 0,-19.60859 h 88.49219 c 10.73594,0 10.73281,19.60859 0,19.60859 z m 0.002,40.15235 c -10.74297,0 -10.74063,-19.60782 0,-19.60782 h 161.82656 c 10.73281,0 10.73047,19.60782 0,19.60782 z M 97.8625,345.01133 a 1.7117187,1.7117188 0 0 1 -1.71172,-1.71407 c 0,-1.20312 0.56719,-4.14218 0.72969,-5.12187 0.86562,-5.22109 2.03203,-10.43906 3.51875,-13.86328 4.61953,-10.61406 25.7289,-11.71719 38.15937,-16.54375 v -9.08828 c -8.28125,-0.39532 -18.58984,-1.04063 -24.34453,-7.89375 6.31016,-2.37657 9.21797,-9.83829 9.62031,-20.99063 0.29844,-8.28828 -1.41406,-10.88594 1.41094,-19.06953 5.59922,-16.20156 26.30469,-21.74063 37.8375,-12.26172 9.04297,-0.96016 18.15547,3.70313 20.12266,17.64922 1.46719,10.41328 -1.63906,16.94609 1.63906,26.53672 1.40938,4.12265 3.86563,7.28515 7.70703,9.13281 -5.88047,5.62813 -18.23828,6.34609 -25.94765,6.75625 v 9.22891 c 13.98984,4.9664 34.29218,4.2125 39.63906,16.33047 1.55625,3.52812 2.78359,8.9164 3.68594,14.37968 0.14297,0.88516 0.68593,3.725 0.68593,4.81875 a 1.7140625,1.7140625 0 0 1 -1.71406,1.71407 z m 2.58984,-181.41563 h 241.2336 c 3.46484,0 6.3,2.84219 6.3,6.3 v 33.4461 c 0,3.45781 -2.84219,6.3 -6.3,6.3 h -241.2336 c -3.45781,0 -6.3,-2.83282 -6.3,-6.3 v -33.4461 c 0,-3.46719 2.83516,-6.3 6.3,-6.3 z m 274.8125,0 H 411.55 c 3.46484,0 6.3,2.84219 6.3,6.3 v 33.4461 c 0,3.45781 -2.84219,6.3 -6.3,6.3 h -36.28516 c -3.45781,0 -6.30312,-2.83282 -6.30312,-6.3 v -33.4461 c 0,-3.46719 2.8375,-6.3 6.30312,-6.3 z m 62.69532,-26.25547 H 74.03984 a 5.19375,5.19375 0 0 0 -5.20625,5.20703 v 226.90547 a 5.19375,5.19375 0 0 0 5.20625,5.20703 h 363.92032 a 5.19375,5.19375 0 0 0 5.20625,-5.20703 V 142.54726 a 5.19375,5.19375 0 0 0 -5.20625,-5.20703 z"
     id="path1-1"
     style="stroke-width:0.78125;fill:#ffffff" />
</svg>
